<!-- Generated by IcoMoon.io -->
<svg version="1.1" xmlns="http://www.w3.org/2000/svg" width="32" height="32" viewBox="0 0 32 32">
<title>uniE905</title>
<path d="M25.844 13.813v2.188q0 3.781-2.531 6.563-2.5 2.813-6.219 3.219v2.25h4.375q0.438 0 0.781 0.313 0.313 0.344 0.313 0.781t-0.313 0.781q-0.344 0.313-0.781 0.313h-10.938q-0.438 0-0.781-0.313-0.313-0.344-0.313-0.781t0.313-0.781q0.344-0.313 0.781-0.313h4.375v-2.25q-3.719-0.406-6.219-3.219-2.531-2.781-2.531-6.563v-2.188q0-0.438 0.313-0.781 0.344-0.313 0.781-0.313t0.781 0.313q0.313 0.344 0.313 0.781v2.188q0 3.156 2.25 5.406t5.406 2.25 5.406-2.25 2.25-5.406v-2.188q0-0.438 0.313-0.781 0.344-0.313 0.781-0.313t0.781 0.313q0.313 0.344 0.313 0.781v0zM21.469 7.25v8.75q0 2.25-1.594 3.875-1.625 1.594-3.875 1.594t-3.875-1.594q-1.594-1.625-1.594-3.875v-8.75q0-2.25 1.594-3.875 1.625-1.594 3.875-1.594t3.875 1.594q1.594 1.625 1.594 3.875z"></path>
</svg>
